ModelForces
version=1
nRows=4
nColumns=203
inDegrees=no

This file contains the forces exerted on a model during a simulation.

A force is a generalized force, meaning that it can be either a force (N) or a torque (Nm).

Units are S.I. units (second, meters, Newtons, ...)
Angles are in degrees.

endheader
time	glut_med1_r	glut_med2_r	glut_med3_r	glut_min1_r	glut_min2_r	glut_min3_r	semimem_r	semiten_r	bifemlh_r	bifemsh_r	sar_r	add_long_r	add_brev_r	add_mag1_r	add_mag2_r	add_mag3_r	tfl_r	pect_r	grac_r	glut_max1_r	glut_max2_r	glut_max3_r	iliacus_r	psoas_r	quad_fem_r	gem_r	peri_r	rect_fem_r	vas_med_r	vas_int_r	vas_lat_r	med_gas_r	lat_gas_r	soleus_r	tib_post_r	flex_dig_r	flex_hal_r	tib_ant_r	per_brev_r	per_long_r	per_tert_r	ext_dig_r	ext_hal_r	glut_med1_l	glut_med2_l	glut_med3_l	glut_min1_l	glut_min2_l	glut_min3_l	semimem_l	semiten_l	bifemlh_l	bifemsh_l	sar_l	add_long_l	add_brev_l	add_mag1_l	add_mag2_l	add_mag3_l	tfl_l	pect_l	grac_l	glut_max1_l	glut_max2_l	glut_max3_l	iliacus_l	psoas_l	quad_fem_l	gem_l	peri_l	rect_fem_l	vas_med_l	vas_int_l	vas_lat_l	med_gas_l	lat_gas_l	soleus_l	tib_post_l	flex_dig_l	flex_hal_l	tib_ant_l	per_brev_l	per_long_l	per_tert_l	ext_dig_l	ext_hal_l	ercspn_r	ercspn_l	intobl_r	intobl_l	extobl_r	extobl_l	femur_lat_meniscii_l.femur_lat_l.force.X	femur_lat_meniscii_l.femur_lat_l.force.Y	femur_lat_meniscii_l.femur_lat_l.force.Z	femur_lat_meniscii_l.femur_lat_l.torque.X	femur_lat_meniscii_l.femur_lat_l.torque.Y	femur_lat_meniscii_l.femur_lat_l.torque.Z	femur_lat_meniscii_l.meniscus_lat_l.force.X	femur_lat_meniscii_l.meniscus_lat_l.force.Y	femur_lat_meniscii_l.meniscus_lat_l.force.Z	femur_lat_meniscii_l.meniscus_lat_l.torque.X	femur_lat_meniscii_l.meniscus_lat_l.torque.Y	femur_lat_meniscii_l.meniscus_lat_l.torque.Z	femur_med_meniscii_l.femur_med_l.force.X	femur_med_meniscii_l.femur_med_l.force.Y	femur_med_meniscii_l.femur_med_l.force.Z	femur_med_meniscii_l.femur_med_l.torque.X	femur_med_meniscii_l.femur_med_l.torque.Y	femur_med_meniscii_l.femur_med_l.torque.Z	femur_med_meniscii_l.meniscus_med_l.force.X	femur_med_meniscii_l.meniscus_med_l.force.Y	femur_med_meniscii_l.meniscus_med_l.force.Z	femur_med_meniscii_l.meniscus_med_l.torque.X	femur_med_meniscii_l.meniscus_med_l.torque.Y	femur_med_meniscii_l.meniscus_med_l.torque.Z	femur_lat_meniscii_r.femur_lat_r.force.X	femur_lat_meniscii_r.femur_lat_r.force.Y	femur_lat_meniscii_r.femur_lat_r.force.Z	femur_lat_meniscii_r.femur_lat_r.torque.X	femur_lat_meniscii_r.femur_lat_r.torque.Y	femur_lat_meniscii_r.femur_lat_r.torque.Z	femur_lat_meniscii_r.meniscus_lat_r.force.X	femur_lat_meniscii_r.meniscus_lat_r.force.Y	femur_lat_meniscii_r.meniscus_lat_r.force.Z	femur_lat_meniscii_r.meniscus_lat_r.torque.X	femur_lat_meniscii_r.meniscus_lat_r.torque.Y	femur_lat_meniscii_r.meniscus_lat_r.torque.Z	femur_med_meniscii_r.femur_med_r.force.X	femur_med_meniscii_r.femur_med_r.force.Y	femur_med_meniscii_r.femur_med_r.force.Z	femur_med_meniscii_r.femur_med_r.torque.X	femur_med_meniscii_r.femur_med_r.torque.Y	femur_med_meniscii_r.femur_med_r.torque.Z	femur_med_meniscii_r.meniscus_med_r.force.X	femur_med_meniscii_r.meniscus_med_r.force.Y	femur_med_meniscii_r.meniscus_med_r.force.Z	femur_med_meniscii_r.meniscus_med_r.torque.X	femur_med_meniscii_r.meniscus_med_r.torque.Y	femur_med_meniscii_r.meniscus_med_r.torque.Z	femur_med_tibia_l.tibia_upper_l.force.X	femur_med_tibia_l.tibia_upper_l.force.Y	femur_med_tibia_l.tibia_upper_l.force.Z	femur_med_tibia_l.tibia_upper_l.torque.X	femur_med_tibia_l.tibia_upper_l.torque.Y	femur_med_tibia_l.tibia_upper_l.torque.Z	femur_med_tibia_l.femur_med_l.force.X	femur_med_tibia_l.femur_med_l.force.Y	femur_med_tibia_l.femur_med_l.force.Z	femur_med_tibia_l.femur_med_l.torque.X	femur_med_tibia_l.femur_med_l.torque.Y	femur_med_tibia_l.femur_med_l.torque.Z	femur_lat_tibia_l.tibia_upper_l.force.X	femur_lat_tibia_l.tibia_upper_l.force.Y	femur_lat_tibia_l.tibia_upper_l.force.Z	femur_lat_tibia_l.tibia_upper_l.torque.X	femur_lat_tibia_l.tibia_upper_l.torque.Y	femur_lat_tibia_l.tibia_upper_l.torque.Z	femur_lat_tibia_l.femur_lat_l.force.X	femur_lat_tibia_l.femur_lat_l.force.Y	femur_lat_tibia_l.femur_lat_l.force.Z	femur_lat_tibia_l.femur_lat_l.torque.X	femur_lat_tibia_l.femur_lat_l.torque.Y	femur_lat_tibia_l.femur_lat_l.torque.Z	femur_med_tibia_r.tibia_upper_r.force.X	femur_med_tibia_r.tibia_upper_r.force.Y	femur_med_tibia_r.tibia_upper_r.force.Z	femur_med_tibia_r.tibia_upper_r.torque.X	femur_med_tibia_r.tibia_upper_r.torque.Y	femur_med_tibia_r.tibia_upper_r.torque.Z	femur_med_tibia_r.femur_med_r.force.X	femur_med_tibia_r.femur_med_r.force.Y	femur_med_tibia_r.femur_med_r.force.Z	femur_med_tibia_r.femur_med_r.torque.X	femur_med_tibia_r.femur_med_r.torque.Y	femur_med_tibia_r.femur_med_r.torque.Z	femur_lat_tibia_r.tibia_upper_r.force.X	femur_lat_tibia_r.tibia_upper_r.force.Y	femur_lat_tibia_r.tibia_upper_r.force.Z	femur_lat_tibia_r.tibia_upper_r.torque.X	femur_lat_tibia_r.tibia_upper_r.torque.Y	femur_lat_tibia_r.tibia_upper_r.torque.Z	femur_lat_tibia_r.femur_lat_r.force.X	femur_lat_tibia_r.femur_lat_r.force.Y	femur_lat_tibia_r.femur_lat_r.force.Z	femur_lat_tibia_r.femur_lat_r.torque.X	femur_lat_tibia_r.femur_lat_r.torque.Y	femur_lat_tibia_r.femur_lat_r.torque.Z	aACL_R	pACL_R	aPCL_R	pPCL_R	aMCL_R	mMCL_R	pMCL_R	aLCL_R	mLCL_R	pLCL_R	aPCL_L	pPCL_L	aMCL_L	aLCL_L
      0.16194186	     11.61059602	      8.43905180	      9.07781990	      3.89465378	      4.52420598	      4.90647436	      0.00000000	    143.41228011	    168.72149331	    318.12253185	    120.56185546	      8.40007174	      6.04421519	      4.33752990	      3.68079827	      6.20987059	      4.72449706	      3.28765614	     87.86703302	      5.44921891	      8.28985864	      6.23077937	     27.71935630	     18.72555162	      5.35680799	      3.68442036	      6.98747878	     84.09719693	    437.82790897	     36.34089995	    759.47261822	      0.00000000	      0.00000000	      0.00000000	      0.00000000	      0.00000000	      0.00000000	     49.12440178	      0.00000000	      0.00000000	     26.99592254	     37.76215128	      9.64522799	     11.61059602	      8.43905180	      9.07781990	      3.89465378	      4.52420598	      4.90647436	     14.43180508	      6.25811134	     12.49136498	     10.66216845	      2.22208851	      8.40007174	      6.04421519	      4.33752990	      3.68079827	      6.20987059	      5.47439138	      3.28765614	      2.29433511	      5.44921891	      8.28985864	      6.23077937	     27.71935630	     18.72555162	      5.35680799	      3.68442036	      6.98747878	     17.24341970	      9.92486267	     11.46873756	     12.31738293	     24.89590607	     11.56952739	     53.15968315	     51.56103456	      5.63682927	      5.53393332	     13.45512931	      7.20484583	     18.68501927	      2.89513689	      8.79310156	      2.74950709	     36.66004192	     36.66004192	     13.63322338	     13.63322338	     30.98235861	     30.98235861	      2.76307435	     50.99597937	     -9.56042239	      5.21997485	     -0.02578839	      1.48581788	     -2.76307435	    -50.99597937	      9.56042239	     -1.74637766	      0.02558040	     -0.48301696	     -3.31599387	     20.97615968	     -3.40468921	      0.94473225	     -0.02138609	     -1.00501789	      3.31599387	    -20.97615968	      3.40468921	      0.28075727	      0.00368718	     -0.29758878	    295.02032676	    311.27775342	     86.21749097	    -42.12432856	      7.54663532	    116.47073250	   -295.02032676	   -311.27775342	    -86.21749097	      9.41850248	    -10.57692212	      6.38304402	    365.88777886	    192.29212644	      7.87601388	      0.44056077	     -6.78629586	    144.82761629	   -365.88777886	   -192.29212644	     -7.87601388	     -2.89671841	      5.40999363	      2.87783026	      0.00000000	      0.00000000	      0.00000000	      0.00000000	      0.00000000	      0.00000000	      0.00000000	      0.00000000	      0.00000000	      0.00000000	      0.00000000	      0.00000000	      0.00000000	      0.00000000	      0.00000000	      0.00000000	      0.00000000	      0.00000000	      0.00000000	      0.00000000	      0.00000000	      0.00000000	      0.00000000	      0.00000000	   -270.23348041	   -482.74572036	    139.00512866	     -8.14283318	      7.69501698	     11.05570345	    270.23348041	    482.74572036	   -139.00512866	     64.06715176	     -5.22898362	    106.22838856	      0.00000000	      0.00000000	      0.00000000	      0.00000000	      0.00000000	      0.00000000	      0.00000000	      0.00000000	      0.00000000	      0.00000000	      0.00000000	      0.00000000	      0.00000000	      0.00000000	    852.56869876	    524.12755739	     40.79333830	     26.18871030	      0.00000000	      0.00000000	      0.00000000	      0.00000000	      0.00000000	      0.00000000	      0.00000001	      0.00000000
      0.16197447	     11.60883832	      8.43785800	      9.07652039	      3.89412534	      4.52362756	      4.90573321	      0.00000000	    143.31097973	    168.58674861	    317.51118421	    120.47664868	      8.39886983	      6.04340272	      4.33691891	      3.68026781	      6.20890917	      4.72912099	      3.28720687	     87.79057299	      5.44844486	      8.28867849	      6.22987871	     27.71715507	     18.72304115	      5.35606536	      3.68405710	      6.98629440	     84.08044153	    161.39127112	     36.22042310	    287.69435265	      0.00000000	      0.00000000	      0.00000000	      0.00000000	      0.00000000	      0.00000000	     49.14763305	      0.00000000	      0.00000000	     26.98071038	     37.76841404	      9.64903280	     11.60883832	      8.43785800	      9.07652039	      3.89412534	      4.52362756	      4.90573321	     14.42941364	      6.25717054	     12.48932256	     10.66068860	      2.22178841	      8.39886983	      6.04340272	      4.33691891	      3.68026781	      6.20890917	      5.47379487	      3.28720687	      2.29401981	      5.44844486	      8.28867849	      6.22987871	     27.71715507	     18.72304115	      5.35606536	      3.68405710	      6.98629440	     17.24061760	      9.92341664	     11.46704015	     12.31556058	     24.89163301	     11.56753716	     53.15064426	     51.55711991	      5.63582041	      5.53295177	     13.45298183	      7.20364071	     18.68245653	      2.89475016	      8.79161570	      2.74904742	     36.65505661	     36.65505661	     13.63122117	     13.63122117	     30.98054238	     30.98054238	      2.76307435	     50.99597937	     -9.56042239	      5.21997485	     -0.02578839	      1.48581788	     -2.76307435	    -50.99597937	      9.56042239	     -1.74637766	      0.02558040	     -0.48301696	     -3.31599387	     20.97615968	     -3.40468921	      0.94473225	     -0.02138609	     -1.00501789	      3.31599387	    -20.97615968	      3.40468921	      0.28075727	      0.00368718	     -0.29758878	    289.93266158	    312.24363263	     86.58221374	    -42.29535423	      7.43740661	    114.37851655	   -289.93266158	   -312.24363263	    -86.58221374	      9.44904061	    -10.45989676	      6.51204496	    361.61705291	    188.27362677	      7.02790846	      0.73124207	     -6.73552577	    143.15555457	   -361.61705291	   -188.27362677	     -7.02790846	     -2.86908370	      5.39393647	      2.78628266	      0.00000000	      0.00000000	      0.00000000	      0.00000000	      0.00000000	      0.00000000	      0.00000000	      0.00000000	      0.00000000	      0.00000000	      0.00000000	      0.00000000	      0.00000000	      0.00000000	      0.00000000	      0.00000000	      0.00000000	      0.00000000	      0.00000000	      0.00000000	      0.00000000	      0.00000000	      0.00000000	      0.00000000	   -268.25583405	   -482.50444143	    138.19135431	     -8.12062347	      7.64640985	     11.09316113	    268.25583405	    482.50444143	   -138.19135431	     63.72618525	     -5.19263702	    105.41537677	      0.00000000	      0.00000000	      0.00000000	      0.00000000	      0.00000000	      0.00000000	      0.00000000	      0.00000000	      0.00000000	      0.00000000	      0.00000000	      0.00000000	      0.00000000	      0.00000000	    854.11419551	    527.02692633	     41.72559804	     27.26612973	      0.00000000	      0.00000000	      0.00000000	      0.00000000	      0.00000000	      0.00000000	      0.00000001	      0.00000000
      0.16204392	     11.60509784	      8.43531751	      9.07375499	      3.89300079	      4.52239665	      4.90415600	      0.00000000	    143.10838732	    168.30912340	    316.30534614	    120.31208928	      8.39631209	      6.04167373	      4.33561871	      3.67913898	      6.20686321	      4.73904445	      3.28625078	     87.64105244	      5.44679766	      8.28616706	      6.22796208	     27.71247081	     18.71769881	      5.35448500	      3.68328408	      6.98377388	     84.10408528	     79.38244879	     36.04381884	    130.49981005	      0.00000000	      0.00000000	      0.00000000	      0.00000000	      0.00000000	      0.00000000	     49.19031810	      0.00000000	      0.00000000	     26.95176536	     37.78116871	      9.65681302	     11.60509784	      8.43531751	      9.07375499	      3.89300079	      4.52239665	      4.90415600	     14.42432442	      6.25516848	     12.48497612	     10.65753940	      2.22114980	      8.39631209	      6.04167373	      4.33561871	      3.67913898	      6.20686321	      5.47252548	      3.28625078	      2.29334885	      5.44679766	      8.28616706	      6.22796208	     27.71247081	     18.71769881	      5.35448500	      3.68328408	      6.98377388	     17.23465453	      9.92033946	     11.46342802	     12.31168258	     24.88253920	     11.56330161	     53.13140832	     51.54878932	      5.63367343	      5.53086294	     13.44841184	      7.20107609	     18.67700278	      2.89392719	      8.78845349	      2.74806916	     36.64444756	     36.64444756	     13.62696039	     13.62696039	     30.97667741	     30.97667741	      2.76307435	     50.99597937	     -9.56042239	      5.21997485	     -0.02578839	      1.48581788	     -2.76307435	    -50.99597937	      9.56042239	     -1.74637766	      0.02558040	     -0.48301696	     -3.31599387	     20.97615968	     -3.40468921	      0.94473225	     -0.02138609	     -1.00501789	      3.31599387	    -20.97615968	      3.40468921	      0.28075727	      0.00368718	     -0.29758878	    291.37855342	    307.47468311	     85.10631466	    -41.58272622	      7.45064936	    115.02370733	   -291.37855342	   -307.47468311	    -85.10631466	      9.29602566	    -10.44218626	      6.32420914	    363.46856201	    185.65638562	      5.84213003	      1.15511251	     -6.77636812	    143.92305272	   -363.46856201	   -185.65638562	     -5.84213003	     -2.83834730	      5.45829137	      2.68653838	      0.00000000	      0.00000000	      0.00000000	      0.00000000	      0.00000000	      0.00000000	      0.00000000	      0.00000000	      0.00000000	      0.00000000	      0.00000000	      0.00000000	      0.00000000	      0.00000000	      0.00000000	      0.00000000	      0.00000000	      0.00000000	      0.00000000	      0.00000000	      0.00000000	      0.00000000	      0.00000000	      0.00000000	   -268.30631931	   -475.31083503	    138.86363240	     -8.05151011	      7.67122251	     10.85807503	    268.30631931	    475.31083503	   -138.86363240	     63.89724426	     -5.19954344	    105.50485556	      0.00000000	      0.00000000	      0.00000000	      0.00000000	      0.00000000	      0.00000000	      0.00000000	      0.00000000	      0.00000000	      0.00000000	      0.00000000	      0.00000000	      0.00000000	      0.00000000	    854.60075100	    525.58972271	     41.86916920	     27.09982688	      0.00000000	      0.00000000	      0.00000000	      0.00000000	      0.00000000	      0.00000000	      0.00000001	      0.00000000
      0.16220475	     11.59644816	      8.42944272	      9.06736009	      3.89040025	      4.51955021	      4.90050879	      0.00000000	    142.76625756	    167.80646115	    314.33555609	    120.05345117	      8.39039743	      6.03767541	      4.33261202	      3.67652860	      6.20213201	      4.76053136	      3.28403983	     87.39729725	      5.44298858	      8.28035951	      6.22352996	     27.70163882	     18.70534511	      5.35083045	      3.68149655	      6.97794473	     84.34369394	     51.58144583	     35.92638663	     70.23389164	      0.00000000	      0.00000000	      0.00000000	      0.00000000	      0.00000000	      0.00000000	     49.26240777	      0.00000000	      0.00000000	     26.89197156	     37.80771815	      9.67373114	     11.59644816	      8.42944272	      9.06736009	      3.89040025	      4.51955021	      4.90050879	     14.41255509	      6.25053881	     12.47492475	     10.65025693	      2.21967298	      8.39039743	      6.03767541	      4.33261202	      3.67652860	      6.20213201	      5.46959007	      3.28403983	      2.29179726	      5.44298858	      8.28035951	      6.22352996	     27.70163882	     18.70534511	      5.35083045	      3.68149655	      6.97794473	     17.22086471	      9.91322371	     11.45507523	     12.30271505	     24.86150712	     11.55350570	     53.08692192	     51.52952496	      5.62870805	      5.52603221	     13.43784373	      7.19514520	     18.66439048	      2.89202414	      8.78113973	      2.74580655	     36.61991408	     36.61991408	     13.61710751	     13.61710751	     30.96774005	     30.96774005	      2.76307435	     50.99597937	     -9.56042239	      5.21997485	     -0.02578839	      1.48581788	     -2.76307435	    -50.99597937	      9.56042239	     -1.74637766	      0.02558040	     -0.48301696	     -3.31599387	     20.97615968	     -3.40468921	      0.94473225	     -0.02138609	     -1.00501789	      3.31599387	    -20.97615968	      3.40468921	      0.28075727	      0.00368718	     -0.29758878	    303.11544613	    294.01838041	     81.51106050	    -39.81080476	      7.66343223	    119.97286370	   -303.11544613	   -294.01838041	    -81.51106050	      8.88186574	    -10.60620401	      5.65754863	    371.41032463	    177.89554701	      3.09322272	      2.11398445	     -6.94199268	    147.18724869	   -371.41032463	   -177.89554701	     -3.09322272	     -2.74856239	      5.66659734	      2.35773825	      0.00000000	      0.00000000	      0.00000000	      0.00000000	      0.00000000	      0.00000000	      0.00000000	      0.00000000	      0.00000000	      0.00000000	      0.00000000	      0.00000000	      0.00000000	      0.00000000	      0.00000000	      0.00000000	      0.00000000	      0.00000000	      0.00000000	      0.00000000	      0.00000000	      0.00000000	      0.00000000	      0.00000000	   -271.41223732	   -455.70835235	    141.33438487	     -7.88202840	      7.79078415	     10.15378578	    271.41223732	    455.70835235	   -141.33438487	     64.63249799	     -5.26521608	    106.97053894	      0.00000000	      0.00000000	      0.00000000	      0.00000000	      0.00000000	      0.00000000	      0.00000000	      0.00000000	      0.00000000	      0.00000000	      0.00000000	      0.00000000	      0.00000000	      0.00000000	    853.73773576	    517.23731134	     40.72228019	     24.88925330	      0.00000000	      0.00000000	      0.00000000	      0.00000000	      0.00000000	      0.00000000	      0.00000001	      0.00000000
